<svg viewBox="0 0 100 100" xmlns="http://www.w3.org/2000/svg">
  <!-- Orc body -->
  <ellipse cx="50" cy="65" rx="28" ry="30" fill="#3d5016" stroke="#2a3610" stroke-width="2"/>
  
  <!-- Orc head -->
  <circle cx="50" cy="30" r="22" fill="#4a5d1a" stroke="#2a3610" stroke-width="2"/>
  
  <!-- Eyes -->
  <circle cx="42" cy="26" r="3" fill="#ff6666"/>
  <circle cx="58" cy="26" r="3" fill="#ff6666"/>
  
  <!-- Tusks -->
  <polygon points="45,35 47,42 43,42" fill="#ffffcc"/>
  <polygon points="55,35 57,42 53,42" fill="#ffffcc"/>
  
  <!-- Mouth -->
  <path d="M 40 38 Q 50 44 60 38" stroke="#2a3610" stroke-width="2" fill="#221100"/>
  
  <!-- Large ears -->
  <ellipse cx="25" cy="20" rx="8" ry="12" fill="#4a5d1a" stroke="#2a3610" stroke-width="1"/>
  <ellipse cx="75" cy="20" rx="8" ry="12" fill="#4a5d1a" stroke="#2a3610" stroke-width="1"/>
  
  <!-- Muscular arms -->
  <ellipse cx="25" cy="60" rx="12" ry="20" fill="#3d5016" stroke="#2a3610" stroke-width="1"/>
  <ellipse cx="75" cy="60" rx="12" ry="20" fill="#3d5016" stroke="#2a3610" stroke-width="1"/>
  
  <!-- Large weapon (mace) -->
  <rect x="80" y="35" width="4" height="25" fill="#654321"/>
  <ellipse cx="82" cy="32" rx="6" ry="8" fill="#888888"/>
  <circle cx="79" cy="28" r="2" fill="#666666"/>
  <circle cx="85" cy="28" r="2" fill="#666666"/>
  <circle cx="82" cy="25" r="2" fill="#666666"/>
</svg>